<?xml version="1.0" encoding="UTF-8"?>
<svg id="svg58" xmlns="http://www.w3.org/2000/svg" viewBox="0 0 54.5 36.34">
  <defs>
    <style>
      .cls-1 {
        fill: #f9e050;
      }

      .cls-2 {
        fill: #f4f464;
      }

      .cls-3 {
        fill: #f14d34;
      }

      .cls-4 {
        fill: #f4ac2b;
      }
    </style>
  </defs>
  <rect id="rect8" class="cls-2" y="6.06" width="6.06" height="6.06"/>
  <polygon id="polygon20" class="cls-4" points="30.28 6.06 24.22 6.06 24.22 12.11 24.22 18.17 24.22 24.22 18.17 24.22 18.17 30.28 24.22 30.28 30.28 30.28 30.28 24.22 30.28 18.17 30.28 12.11 30.28 6.06"/>
  <g id="g4179">
    <rect id="rect10" class="cls-1" x="12.11" width="6.06" height="6.06"/>
    <rect id="rect12" class="cls-1" x="18.17" y="6.06" width="6.06" height="6.06"/>
    <rect id="rect14" class="cls-1" x="12.11" y="12.11" width="6.06" height="6.06"/>
    <rect id="rect16" class="cls-1" x="18.17" y="18.17" width="6.06" height="6.06"/>
    <rect id="rect18" class="cls-1" x="12.11" y="24.22" width="6.06" height="6.06"/>
    <rect id="rect22" class="cls-1" x="18.17" y="30.28" width="6.06" height="6.06"/>
  </g>
  <polygon id="polygon24" class="cls-3" points="48.45 24.22 48.45 30.28 54.5 30.28 54.5 24.22 54.5 18.17 54.5 12.11 54.5 6.06 48.45 6.06 48.45 12.11 48.45 18.17 48.45 24.22"/>
  <polygon id="polygon26" class="cls-3" points="24.22 36.34 30.28 36.34 36.33 36.34 42.39 36.34 48.45 36.34 48.45 30.28 42.39 30.28 36.33 30.28 36.33 24.22 36.33 18.17 36.33 12.11 36.33 6.06 42.39 6.06 48.45 6.06 48.45 0 42.39 0 36.33 0 30.28 0 24.22 0 24.22 6.06 30.28 6.06 30.28 12.11 30.28 18.17 30.28 24.22 30.28 30.28 24.22 30.28 24.22 36.34"/>
</svg>